<svg xmlns="http://www.w3.org/2000/svg" viewBox="0 0 1920 911" preserveAspectRatio="xMidYMid" width="1920" height="911" xmlns:xlink="http://www.w3.org/1999/xlink" style="shape-rendering:auto;display:block;background-position-x:0%;background-position-y:0%;background-size:auto;background-origin:padding-box;background-clip:border-box;background:scroll rgb(255, 255, 255) none  repeat;width:1920px;height:911px;;animation:none"><g><linearGradient y2="0" y1="0" x2="1" x1="0" id="lg-dyp0zjtuz0v"><stop offset="0" stop-color="#d2f8d0"></stop>

  
<stop offset="1" stop-color="#00ffff"></stop></linearGradient>
<path opacity="0.4" fill="url(#lg-dyp0zjtuz0v)" d="M 0 0 L 0 521.24 Q 192 637.77 384 598 T 768 566.86 T 1152 500.54 T 1536 456.45 T 1920 275.15 L 1920 0 Z" style="fill:url('#lg-dyp0zjtuz0v');opacity:0.4;;animation:none"></path>
<path opacity="0.4" fill="url(#lg-dyp0zjtuz0v)" d="M 0 0 L 0 618.95 Q 192 575.722 384 541.725 T 768 415.247 T 1152 477.07 T 1536 272.717 T 1920 329.283 L 1920 0 Z" style="fill:url('#lg-dyp0zjtuz0v');opacity:0.4;;animation:none"></path>
<path opacity="0.4" fill="url(#lg-dyp0zjtuz0v)" d="M 0 0 L 0 574.117 Q 192 528.042 384 490.553 T 768 470.719 T 1152 453.188 T 1536 416.567 T 1920 322.511 L 1920 0 Z" style="fill:url('#lg-dyp0zjtuz0v');opacity:0.4;;animation:none"></path>
<path opacity="0.4" fill="url(#lg-dyp0zjtuz0v)" d="M 0 0 L 0 650.18 Q 192 645.493 384 617.13 T 768 468.262 T 1152 508.144 T 1536 386.222 T 1920 315.591 L 1920 0 Z" style="fill:url('#lg-dyp0zjtuz0v');opacity:0.4;;animation:none"></path>
<path opacity="0.4" fill="url(#lg-dyp0zjtuz0v)" d="M 0 0 L 0 605.833 Q 192 581.128 384 559.697 T 768 456.162 T 1152 414.491 T 1536 311.025 T 1920 264.197 L 1920 0 Z" style="fill:url('#lg-dyp0zjtuz0v');opacity:0.4;;animation:none"></path>
<g></g></g><!-- [ldio] generated by https://loading.io --></svg>